<?xml version="1.0" encoding="utf-8"?>
<!-- Generator: Adobe Illustrator 24.1.3, SVG Export Plug-In . SVG Version: 6.00 Build 0)  -->
<svg version="1.0" id="Livello_1" xmlns="http://www.w3.org/2000/svg" xmlns:xlink="http://www.w3.org/1999/xlink" x="0px" y="0px"
	 viewBox="0 0 128 128" style="enable-background:new 0 0 128 128;" xml:space="preserve">
<style type="text/css">
	.st0{fill:#F0C514;}
</style>
<path class="st0" d="M112,68.4l-47.3,47.3c-0.4,0.4-1,0.4-1.4,0c0,0,0,0,0,0L16,68.4C9.5,62,5.9,53.2,6,44.1C6,35.4,9.6,27,15.9,21
	c5.9-5.7,14.8-9,23.3-9c1.7,0,3.3,0.1,4.9,0.4c5,0.8,11.7,3.3,15.4,10.6c0.9,1.6,2.6,2.7,4.4,2.7l0,0c1.8,0,3.5-1,4.3-2.6l0,0
	c3.9-7.2,10.8-9.7,15.9-10.5c9.8-1.5,20.9,1.8,27.7,8.4c6.3,6,10,14.4,10,23.1C122.1,53.2,118.5,62,112,68.4z"/>
<g id="XMLID_1_">
	<g>
		<path class="st0" d="M128,44c0.1,10.7-4.1,21-11.8,28.6l-47.3,47.3c0,0,0,0,0,0c-2.8,2.7-7.2,2.7-9.9,0L11.7,72.7
			C4.1,65.1-0.1,54.8,0,44c0.1-10.3,4.3-20.2,11.8-27.4c8.4-8,21.8-12.1,33.4-10.2c8.3,1.4,14.9,5.7,18.9,12.2
			C68.2,12.3,75,8,83.4,6.7c11.7-1.8,24.6,2.1,32.8,10C123.7,23.8,127.9,33.7,128,44z"/>
	</g>
	<g>
	</g>
</g>
</svg>
